<svg xmlns="http://www.w3.org/2000/svg" viewBox="0 0 32 32">
  <circle cx="16" cy="16" r="16" fill="#F7931A"/>
  <path fill="#fff" d="M22.06 14.02c.26-1.74-1.07-2.68-2.88-3.3l.59-2.36-1.44-.36-.57 2.3c-.38-.1-.77-.18-1.16-.27l.58-2.31-1.44-.36-.59 2.36c-.31-.07-.62-.14-.92-.22v-.01l-1.98-.5-.38 1.54s1.07.24 1.05.26c.58.15.69.53.67.84l-1.62 6.48c-.07.18-.26.44-.66.34.01.02-1.05-.26-1.05-.26l-.72 1.65 1.87.47c.35.09.69.18 1.03.27l-.6 2.39 1.44.36.59-2.36c.39.11.77.2 1.15.3l-.58 2.35 1.44.36.6-2.39c2.46.47 4.3.28 5.08-1.94.63-1.79-.03-2.82-1.32-3.49.94-.22 1.65-.83 1.84-2.1zm-3.29 4.61c-.44 1.79-3.46.82-4.44.58l.79-3.17c.98.24 4.12.73 3.65 2.59zm.45-4.64c-.4 1.63-2.92.8-3.73.6l.72-2.87c.81.2 3.44.58 3.01 2.27z"/>
</svg>
